{
  "accessors": [
    {
      "name": "ZHANGPENG__1_0_positions",
      "componentType": 5126,
      "count": 30069,
      "min": [-2.849600076675415, -0.17720000445842743, -4.681000232696533],
      "max": [2.849600076675415, 4.0157999992370605, 4.681000232696533],
      "type": "VEC3",
      "bufferView": 0,
      "byteOffset": 0
    },
    {
      "name": "ZHANGPENG__1_0_normals",
      "componentType": 5126,
      "count": 30069,
      "min": [-1, -1, -1],
      "max": [1, 1, 1],
      "type": "VEC3",
      "bufferView": 1,
      "byteOffset": 0
    },
    {
      "name": "ZHANGPENG__1_0_texcoords",
      "componentType": 5126,
      "count": 30069,
      "min": [0.009999999776482582, 0.014000000432133675],
      "max": [0.9900000095367432, 0.9900000095367432],
      "type": "VEC2",
      "bufferView": 2,
      "byteOffset": 0
    },
    {
      "name": "ZHANGPENG__1_0_indices",
      "componentType": 5123,
      "count": 144825,
      "min": [0],
      "max": [30068],
      "type": "SCALAR",
      "bufferView": 3,
      "byteOffset": 0
    }
  ],
  "asset": {
    "generator": "obj2gltf",
    "version": "2.0"
  },
  "buffers": [
    {
      "name": "ZP",
      "byteLength": 2227952,
      "uri": "data:application/octet-stream;base64,"
    }
  ],
  "bufferViews": [
    {
      "name": "bufferView_0",
      "buffer": 0,
      "byteLength": 360828,
      "byteOffset": 0,
      "byteStride": 12,
      "target": 34962
    },
    {
      "name": "bufferView_1",
      "buffer": 0,
      "byteLength": 360828,
      "byteOffset": 360828,
      "byteStride": 12,
      "target": 34962
    },
    {
      "name": "bufferView_2",
      "buffer": 0,
      "byteLength": 240552,
      "byteOffset": 721656,
      "byteStride": 8,
      "target": 34962
    },
    {
      "name": "bufferView_3",
      "buffer": 0,
      "byteLength": 289652,
      "byteOffset": 962208,
      "target": 34963
    },
    {
      "buffer": 0,
      "byteOffset": 1251860,
      "byteLength": 976091
    }
  ],
  "images": [
    {
      "name": "ZHANGPEGN",
      "mimeType": "image/jpeg",
      "bufferView": 4
    }
  ],
  "materials": [
    {
      "name": "02___Default",
      "pbrMetallicRoughness": {
        "baseColorTexture": {
          "index": 0
        },
        "baseColorFactor": [1, 1, 1, 1],
        "metallicFactor": 0,
        "roughnessFactor": 0.99
      },
      "emissiveFactor": [0, 0, 0],
      "alphaMode": "OPAQUE",
      "doubleSided": false
    }
  ],
  "meshes": [
    {
      "name": "ZHANGPENG__1",
      "primitives": [
        {
          "attributes": {
            "POSITION": 0,
            "NORMAL": 1,
            "TEXCOORD_0": 2
          },
          "indices": 3,
          "material": 0,
          "mode": 4
        }
      ]
    }
  ],
  "nodes": [
    {
      "name": "ZHANGPENG_",
      "mesh": 0
    }
  ],
  "samplers": [
    {
      "magFilter": 9729,
      "minFilter": 9986,
      "wrapS": 10497,
      "wrapT": 10497
    }
  ],
  "scene": 0,
  "scenes": [
    {
      "nodes": [0]
    }
  ],
  "textures": [
    {
      "name": "ZHANGPEGN",
      "sampler": 0,
      "source": 0
    }
  ]
}
